Coordinates
version=1
nRows=15
nColumns=46
inDegrees=yes

Units are S.I. units (second, meters, Newtons, ...)
Angles are in degrees.

endheader
time	pelvis_tilt	pelvis_list	pelvis_rotation	pelvis_tx	pelvis_ty	pelvis_tz	bb_angle	bb_tx	bb_ty	bb_tz	hip_flexion_r	hip_adduction_r	hip_rotation_r	knee_angle_r	knee_angle_r_beta	ankle_angle_r	subtalar_angle_r	mtp_angle_r	crank_angle_r	hip_flexion_l	hip_adduction_l	hip_rotation_l	knee_angle_l	knee_angle_l_beta	ankle_angle_l	subtalar_angle_l	mtp_angle_l	crank_angle_l	lumbar_extension	lumbar_bending	lumbar_rotation	arm_flex_r	arm_add_r	arm_rot_r	elbow_flex_r	pro_sup_r	wrist_flex_r	wrist_dev_r	arm_flex_l	arm_add_l	arm_rot_l	elbow_flex_l	pro_sup_l	wrist_flex_l	wrist_dev_l
      5.00000000	    -12.10940632	     -5.64450830	     -3.47529996	      0.18365909	      1.06341982	     -0.32323471	      0.00000000	      0.50000000	      0.00000000	      0.25000000	     93.29350671	      0.39051850	      2.25047314	    115.91326243	      2.02306808	     -8.20355316	    -12.44074836	      0.00000000	      0.00000000	     37.71700303	    -13.90268253	     -6.90187616	     33.31790440	      0.58150713	    -22.95232290	      3.08291495	      0.00000000	      0.00000000	    -68.12208414	     -0.53752846	      7.23786749	     89.42418355	    -19.20648975	     30.77491344	     61.02282019	     37.08009677	      0.00000000	      0.00000000	     85.82748458	    -14.70735762	     24.33502533	     67.41422207	     39.21386960	      0.00000000	      0.00000000
      5.00500000	    -12.16071514	     -5.90388493	     -3.54477977	      0.18341660	      1.06464461	     -0.32395054	      0.00000000	      0.50000000	      0.00000000	      0.25000000	     93.54073574	      0.17721825	      1.80697979	    114.99432174	      2.00702954	     -7.50048226	    -12.11916590	      0.00000000	      0.00000000	     37.73129039	    -14.21580677	     -6.90866533	     34.35761323	      0.59965347	    -23.22407694	      2.56156320	      0.00000000	      0.00000000	    -68.26918531	     -0.10729912	      7.44409772	     89.46545647	    -18.77221273	     30.73162762	     61.29806505	     37.00553357	      0.00000000	      0.00000000	     85.78443909	    -15.21900917	     24.27054740	     67.33926385	     39.25004603	      0.00000000	      0.00000000
      5.01000000	    -12.31288328	     -6.11925576	     -3.48781175	      0.18300290	      1.06566607	     -0.32476264	      0.00000000	      0.50000000	      0.00000000	      0.25000000	     93.68794184	     -0.15552866	      1.40952203	    113.94114838	      1.98864819	     -6.42491036	    -11.59561012	      0.00000000	      0.00000000	     38.05613716	    -14.36756647	     -6.57966153	     35.67447044	      0.62263697	    -23.36003366	      1.88981108	      0.00000000	      0.00000000	    -68.36074339	      0.43190616	      7.50149222	     89.49742348	    -18.17086713	     30.42353274	     61.68109171	     36.83668022	      0.00000000	      0.00000000	     85.70356699	    -15.93538225	     24.29874026	     67.54941487	     39.37302835	      0.00000000	      0.00000000
      5.01500000	    -12.28577110	     -6.09499510	     -3.63475621	      0.18256550	      1.06697521	     -0.32529175	      0.00000000	      0.50000000	      0.00000000	      0.25000000	     93.45313894	     -0.21847041	      1.23128806	    112.72985372	      1.96750711	     -5.23740931	    -11.58042345	      0.00000000	      0.00000000	     38.18227777	    -14.43231107	     -6.58716331	     37.15079314	      0.64840366	    -23.39179659	      1.04259880	      0.00000000	      0.00000000	    -68.61785973	      0.52473901	      7.48865601	     89.52816271	    -17.93159271	     30.34180032	     61.86360422	     36.80669397	      0.00000000	      0.00000000	     85.83034766	    -16.28677743	     24.22362824	     67.57821724	     39.39133550	      0.00000000	      0.00000000
      5.02000000	    -12.51450334	     -6.35098176	     -3.61489106	      0.18203906	      1.06780463	     -0.32616391	      0.00000000	      0.50000000	      0.00000000	      0.25000000	     93.20271638	     -0.42529255	      0.86930335	    111.34400516	      1.94331949	     -3.37007829	    -10.62236030	      0.00000000	      0.00000000	     38.86913442	    -14.55619871	     -5.92188634	     38.96284033	      0.68002985	    -23.28452894	     -0.05192758	      0.00000000	      0.00000000	    -68.67815693	      1.10032898	      7.52188025	     89.55121577	    -17.10601198	     29.78091327	     62.41197367	     36.57458032	      0.00000000	      0.00000000	     85.67016769	    -17.28219212	     24.28881068	     68.13756298	     39.58644042	      0.00000000	      0.00000000
      5.02500000	    -12.62475612	     -6.44166997	     -3.71005919	      0.18152183	      1.06880320	     -0.32677638	      0.00000000	      0.50000000	      0.00000000	      0.25000000	     92.63900722	     -0.46575977	      0.63171398	    109.77867446	      1.91599932	     -1.49476628	    -10.05277372	      0.00000000	      0.00000000	     39.47054065	    -14.61485451	     -5.46863150	     40.92039540	      0.71419563	    -23.30549224	     -1.18185508	      0.00000000	      0.00000000	    -68.86024107	      1.38222495	      7.48116519	     89.57335020	    -16.50375967	     29.42292448	     62.78448144	     36.37393878	      0.00000000	      0.00000000	     85.65056710	    -18.03464619	     24.29949391	     68.57282645	     39.73270397	      0.00000000	      0.00000000
      5.03000000	    -12.67476010	     -6.26828451	     -3.91032448	      0.18119385	      1.06995057	     -0.32722079	      0.00000000	      0.50000000	      0.00000000	      0.25000000	     91.85408814	     -0.34033612	      0.64101867	    108.06517236	      1.88609306	      0.46066677	    -10.06147598	      0.00000000	      0.00000000	     39.94641475	    -14.46781179	     -5.20594046	     42.93169892	      0.74929950	    -23.02338413	     -2.27333768	      0.00000000	      0.00000000	    -69.08309283	      1.35241987	      7.35959693	     89.58729133	    -16.26578999	     29.30562676	     62.99738989	     36.32869502	      0.00000000	      0.00000000	     85.80969167	    -18.37377968	     24.22825791	     68.69914593	     39.76778830	      0.00000000	      0.00000000
      5.03500000	    -12.79999135	     -6.24340766	     -4.11904969	      0.18074386	      1.07072333	     -0.32785278	      0.00000000	      0.50000000	      0.00000000	      0.25000000	     90.92689417	     -0.23765691	      0.55515572	    106.14452632	      1.85257147	      2.61066001	     -9.55758537	      0.00000000	      0.00000000	     40.70894431	    -14.40960273	     -4.67457483	     45.22907144	      0.78939621	    -22.76686208	     -3.57006299	      0.00000000	      0.00000000	    -69.17995080	      1.42875751	      7.30973122	     89.60733530	    -15.90254599	     29.12793979	     63.35275116	     36.28882980	      0.00000000	      0.00000000	     85.85357472	    -18.84726396	     24.16535270	     68.86758955	     39.81494303	      0.00000000	      0.00000000
      5.04000000	    -13.09764431	     -6.31500415	     -4.21878593	      0.18033754	      1.07116843	     -0.32874778	      0.00000000	      0.50000000	      0.00000000	      0.25000000	     89.97613175	     -0.22593403	      0.39642991	    104.00011468	      1.81514442	      5.09016163	     -8.29413159	      0.00000000	      0.00000000	     41.81364358	    -14.30324446	     -3.84856105	     47.67636657	      0.83210957	    -22.53687884	     -4.78727496	      0.00000000	      0.00000000	    -69.15906247	      1.75189612	      7.26748956	     89.61580307	    -15.34908218	     28.76523220	     63.88229826	     36.17660499	      0.00000000	      0.00000000	     85.66097979	    -19.55025605	     24.16446476	     69.33831455	     39.94228167	      0.00000000	      0.00000000
      5.04500000	    -13.17986027	     -5.89998240	     -4.33846037	      0.18015789	      1.07179193	     -0.32944396	      0.00000000	      0.50000000	      0.00000000	      0.25000000	     88.78847097	     -0.16904939	      0.67573714	    101.87257928	      1.77801193	      7.29644807	     -8.41203391	      0.00000000	      0.00000000	     42.56950113	    -13.78196012	     -3.41861123	     50.06525503	      0.87380354	    -22.08604310	     -5.75882384	      0.00000000	      0.00000000	    -69.25418987	      1.66813343	      6.92354245	     89.62220726	    -15.17333364	     28.61575458	     64.08654155	     36.12608104	      0.00000000	      0.00000000	     85.71974208	    -19.79187978	     24.13208254	     69.54175448	     39.99191928	      0.00000000	      0.00000000
      5.05000000	    -13.38344650	     -5.87348838	     -4.33926189	      0.17991041	      1.07201790	     -0.33043252	      0.00000000	      0.50000000	      0.00000000	      0.25000000	     87.49958351	     -0.17601272	      0.59479943	     99.52380390	      1.73701806	      9.70651063	     -7.67516616	      0.00000000	      0.00000000	     43.71911679	    -13.46773135	     -2.47966300	     52.71067536	      0.91997484	    -21.73396338	     -6.78473965	      0.00000000	      0.00000000	    -69.31777801	      2.06039266	      6.35314928	     89.62761103	    -13.78683959	     27.74661333	     64.44543075	     35.00344189	      0.00000000	      0.00000000	     85.23165236	    -21.44164471	     24.16917141	     71.63718532	     40.61107382	      0.00000000	      0.00000000
      5.05500000	    -13.45158207	     -5.52453600	     -4.43555609	      0.17983604	      1.07248756	     -0.33113895	      0.00000000	      0.50000000	      0.00000000	      0.25000000	     86.00666877	     -0.05991891	      0.77616055	     96.99858897	      1.69294475	     11.61327390	     -8.00998347	      0.00000000	      0.00000000	     44.58710076	    -12.92204740	     -1.85227096	     55.18149248	      0.96309873	    -21.52559096	     -7.49121995	      0.00000000	      0.00000000	    -69.37514321	      1.98671964	      6.06019393	     89.63486909	    -13.70239965	     27.73830590	     64.61083423	     34.94688430	      0.00000000	      0.00000000	     85.28800915	    -21.48975406	     24.14791966	     71.56679126	     40.61621053	      0.00000000	      0.00000000
      5.06000000	    -13.59409772	     -5.41394387	     -4.48651506	      0.17962776	      1.07268332	     -0.33189644	      0.00000000	      0.50000000	      0.00000000	      0.25000000	     84.49631851	     -0.04408654	      0.62562056	     94.23475388	      1.64470672	     13.10138867	     -8.01821103	      0.00000000	      0.00000000	     45.72637705	    -12.56772510	     -1.04353609	     57.81829363	      1.00911959	    -21.28597024	     -8.16389204	      0.00000000	      0.00000000	    -69.33169773	      2.12762847	      5.99506386	     89.63827005	    -13.51816839	     27.66760490	     64.85874862	     34.86387498	      0.00000000	      0.00000000	     85.23584731	    -21.62505622	     24.10098722	     71.54709144	     40.63710960	      0.00000000	      0.00000000
      5.06500000	    -13.68449198	     -5.31134014	     -4.44502016	      0.17960580	      1.07253271	     -0.33256768	      0.00000000	      0.50000000	      0.00000000	      0.25000000	     82.90545258	      0.10629919	      0.59627267	     91.40761293	      1.59536381	     14.16316429	     -8.66280060	      0.00000000	      0.00000000	     46.90289052	    -12.15904872	     -0.13172525	     60.57025937	      1.05715045	    -20.90988602	     -8.54414007	      0.00000000	      0.00000000	    -69.32977936	      2.34533695	      5.89702255	     89.63461526	    -13.34787767	     27.56460609	     65.09806181	     34.70480547	      0.00000000	      0.00000000	     85.04306866	    -21.78777124	     24.01970753	     71.65794151	     40.69572381	      0.00000000	      0.00000000
      5.07000000	    -13.60094648	     -4.82960003	     -4.45997612	      0.17970585	      1.07252946	     -0.33326402	      0.00000000	      0.50000000	      0.00000000	      0.25000000	     81.20469650	      0.03657979	      0.75986059	     88.55874876	      1.54564175	     14.99448063	     -9.38680332	      0.00000000	      0.00000000	     47.77086082	    -11.46549244	      0.33271521	     63.17571753	      1.10262428	    -20.53621168	     -9.10101016	      0.00000000	      0.00000000	    -69.43893431	      2.24110893	      5.46374605	     89.62681999	    -13.28124264	     27.52701977	     65.19420462	     34.65215459	      0.00000000	      0.00000000	     85.04663100	    -21.76689345	     23.97786158	     71.69396312	     40.71400125	      0.00000000	      0.00000000
